<svg xmlns="http://www.w3.org/2000/svg" height="700" viewBox="0 96 960 960" width="500"><path d="M106.5 834v-21q25-4 42.5-14.5t36.323-20.474q18.822-9.973 40.25-18Q247 752 279.26 752q30.74 0 54.471 9.888 23.731 9.888 46.5 22t46.223 21.612q23.454 9.5 54.046 9.5 29 0 52.75-9.5t46.5-21.5q22.75-12 46.5-22t56.01-10q30.74 0 52.447 8.026 21.706 8.027 40 18Q793 788 811.25 798.5T854 813v21q-24-3.5-42.677-14.019-18.678-10.519-38-21Q754 788.5 732.103 780.75 710.206 773 682.356 773q-29.356 0-52.606 9.888t-46.5 21.5Q560 816 535.593 826q-24.407 10-55 10Q449 836 424.5 826q-24.5-10-47.828-21.5-23.328-11.5-46.411-21.5-23.082-10-50.839-10-29.266 0-51.094 7.5Q206.5 788 187 798.75q-19.5 10.75-38.747 21T106.5 834Zm0-145.5v-21q25-4.5 42.506-14.769t36.25-20.5Q204 622 225.5 614.25q21.5-7.75 53.76-7.75 30.74 0 54.471 10.25 23.731 10.25 46.5 21.75t46.223 21.5q23.454 10 54.046 10 29 0 52.75-10t46.5-21.5q22.75-11.5 46.5-21.25t56.01-10.75q30.74 1 52.447 8.138 21.706 7.138 40 17.5Q793 642.5 811.25 652.75 829.5 663 854 667.5v21q-24-4.5-42.815-14.519-18.814-10.019-37.75-20.75Q754.5 642.5 732.306 635q-22.194-7.5-49.75-8.5-29.056 1-52.806 10.75Q606 647 583.475 658.981q-22.524 11.981-47.5 22Q511 691 480.407 691q-31.593 0-56-10t-47.735-22q-23.328-12-46.411-22.25-23.082-10.25-50.839-10.25-29.266 0-51.094 8.5Q206.5 643.5 187 654q-19.5 10.5-38.747 20.75T106.5 688.5Zm0-146v-20q25-4 42.506-14.269t36.25-21Q204 476.5 225.5 468.5q21.5-8 53.76-8 30.74 0 54.471 10.25 23.731 10.25 46.5 22.25t46.223 22q23.454 10 54.046 10 29 0 52.75-10t46.5-22q22.75-12 46.5-21.75t56.01-10.75q30.74 1 52.447 8.388 21.706 7.388 40 18.25Q793 498 811.25 508.25 829.5 518.5 854 522.5v20q-24-3-42.677-13.019-18.678-10.019-38-21Q754 497.5 732.103 489.5q-21.897-8-49.747-8-29.356 0-52.606 10.25t-46.5 21.75Q560 525 535.593 535q-24.407 10-55 10Q449 545 424.5 535q-24.5-10-47.828-21.5-23.328-11.5-46.411-21.75-23.082-10.25-50.839-10.25-29.266 0-51.094 8-21.828 8-41.328 19-19.5 11-38.747 21t-41.753 13Zm0-145v-21q25-4.5 42.5-14.75t36.25-20q18.75-9.75 40.25-18t53.76-8.25q30.74 0 54.471 10.25 23.731 10.25 46.5 21.75t46.223 21.75q23.454 10.25 54.046 9.25 29 1 52.75-9.25t46.424-21.75q22.675-11.5 46.537-21.75 23.863-10.25 56.289-10.25 30.623 0 52.296 8.138t39.939 18Q793 351.5 811.25 361.75 829.5 372 854 376.5v21q-24-4-42.677-14.019-18.678-10.019-38-20.5Q754 352.5 732.103 344.5q-21.897-8-49.747-8-29.356 0-52.606 9.75T583.25 368q-23.25 12-47.657 22.25-24.407 10.25-55 9.25-31.593 1-56.093-9.25Q400 380 376.672 368q-23.328-12-46.411-21.75-23.082-9.75-50.839-9.75-29.266 0-51.094 8Q206.5 352.5 187 363q-19.5 10.5-38.747 20.5t-41.753 14Z"/></svg>