<svg width="200" height="40" viewBox="0 0 200 40" fill="none" xmlns="http://www.w3.org/2000/svg">
<path d="M9.184 16.008C9.952 14.76 11.056 13.752 12.496 12.984C13.936 12.216 15.584 11.832 17.44 11.832C19.648 11.832 21.648 12.392 23.44 13.512C25.232 14.632 26.64 16.232 27.664 18.312C28.72 20.392 29.248 22.808 29.248 25.56C29.248 28.312 28.72 30.744 27.664 32.856C26.64 34.936 25.232 36.552 23.44 37.704C21.648 38.824 19.648 39.384 17.44 39.384C15.552 39.384 13.904 39.016 12.496 38.28C11.088 37.512 9.984 36.504 9.184 35.256V39H0.975998V3.48H9.184V16.008ZM20.896 25.56C20.896 23.512 20.32 21.912 19.168 20.76C18.048 19.576 16.656 18.984 14.992 18.984C13.36 18.984 11.968 19.576 10.816 20.76C9.696 21.944 9.136 23.56 9.136 25.608C9.136 27.656 9.696 29.272 10.816 30.456C11.968 31.64 13.36 32.232 14.992 32.232C16.624 32.232 18.016 31.64 19.168 30.456C20.32 29.24 20.896 27.608 20.896 25.56Z" fill="black"/>
<path d="M37.6821 9.432C36.2421 9.432 35.0581 9.016 34.1301 8.184C33.2341 7.32 32.7861 6.264 32.7861 5.016C32.7861 3.736 33.2341 2.68 34.1301 1.848C35.0581 0.984002 36.2421 0.552002 37.6821 0.552002C39.0901 0.552002 40.2421 0.984002 41.1381 1.848C42.0661 2.68 42.5301 3.736 42.5301 5.016C42.5301 6.264 42.0661 7.32 41.1381 8.184C40.2421 9.016 39.0901 9.432 37.6821 9.432ZM41.7621 12.216V39H33.5541V12.216H41.7621Z" fill="black"/>
<path d="M64.0784 39L55.9184 27.768V39H47.7104V3.48H55.9184V23.112L64.0304 12.216H74.1584L63.0224 25.656L74.2544 39H64.0784Z" fill="black"/>
<path d="M75.9902 22.104C75.9902 18.776 76.7102 15.816 78.1502 13.224C79.5902 10.6 81.5902 8.568 84.1502 7.128C86.7422 5.656 89.6702 4.92 92.9342 4.92C96.9343 4.92 100.358 5.976 103.206 8.088C106.054 10.2 107.958 13.08 108.918 16.728H99.8942C99.2222 15.32 98.2623 14.248 97.0143 13.512C95.7983 12.776 94.4062 12.408 92.8382 12.408C90.3102 12.408 88.2623 13.288 86.6943 15.048C85.1263 16.808 84.3422 19.16 84.3422 22.104C84.3422 25.048 85.1263 27.4 86.6943 29.16C88.2623 30.92 90.3102 31.8 92.8382 31.8C94.4062 31.8 95.7983 31.432 97.0143 30.696C98.2623 29.96 99.2222 28.888 99.8942 27.48H108.918C107.958 31.128 106.054 34.008 103.206 36.12C100.358 38.2 96.9343 39.24 92.9342 39.24C89.6702 39.24 86.7422 38.52 84.1502 37.08C81.5902 35.608 79.5902 33.576 78.1502 30.984C76.7102 28.392 75.9902 25.432 75.9902 22.104Z" fill="black"/>
<path d="M122.153 16.68C123.113 15.208 124.313 14.056 125.753 13.224C127.193 12.36 128.793 11.928 130.553 11.928V20.616H128.297C126.249 20.616 124.713 21.064 123.689 21.96C122.665 22.824 122.153 24.36 122.153 26.568V39H113.945V12.216H122.153V16.68Z" fill="black"/>
<path d="M132.844 25.56C132.844 22.808 133.356 20.392 134.38 18.312C135.436 16.232 136.86 14.632 138.652 13.512C140.444 12.392 142.444 11.832 144.652 11.832C146.54 11.832 148.188 12.216 149.596 12.984C151.036 13.752 152.14 14.76 152.908 16.008V12.216H161.116V39H152.908V35.208C152.108 36.456 150.988 37.464 149.548 38.232C148.14 39 146.492 39.384 144.604 39.384C142.428 39.384 140.444 38.824 138.652 37.704C136.86 36.552 135.436 34.936 134.38 32.856C133.356 30.744 132.844 28.312 132.844 25.56ZM152.908 25.608C152.908 23.56 152.332 21.944 151.18 20.76C150.06 19.576 148.684 18.984 147.052 18.984C145.42 18.984 144.028 19.576 142.876 20.76C141.756 21.912 141.196 23.512 141.196 25.56C141.196 27.608 141.756 29.24 142.876 30.456C144.028 31.64 145.42 32.232 147.052 32.232C148.684 32.232 150.06 31.64 151.18 30.456C152.332 29.272 152.908 27.656 152.908 25.608Z" fill="black"/>
<path d="M180.494 19.032H176.078V39H167.87V19.032H164.894V12.216H167.87V11.448C167.87 8.152 168.814 5.656 170.702 3.96C172.59 2.232 175.358 1.368 179.006 1.368C179.614 1.368 180.062 1.384 180.35 1.416V8.376C178.782 8.28 177.678 8.504 177.038 9.048C176.398 9.592 176.078 10.568 176.078 11.976V12.216H180.494V19.032Z" fill="black"/>
<path d="M199.279 32.04V39H195.103C192.127 39 189.807 38.28 188.143 36.84C186.479 35.368 185.647 32.984 185.647 29.688V19.032H182.383V12.216H185.647V5.688H193.855V12.216H199.231V19.032H193.855V29.784C193.855 30.584 194.047 31.16 194.431 31.512C194.815 31.864 195.455 32.04 196.351 32.04H199.279Z" fill="black"/>
</svg>
